<svg xmlns="http://www.w3.org/2000/svg" viewBox="0 0 64 64" id="quote">
  <path fill="#222" d="M29.449 36.548c.938 5.251-3.094 10.128-9.846 10.128s-10.409-8.909-9.19-16.6c1.13-7.132 8.874-11.6 14.481-12.587a1 1 0 0 1 1.168 1.077l-.2 2.366a.977.977 0 0 1-.786.892c-6.045 1.025-9.642 10.085-5.941 9 3.844-1.124 9.376.476 10.314 5.724Zm24.236 0c-.938-5.251-6.471-6.845-10.316-5.72-3.7 1.083-.1-7.977 5.941-9a.976.976 0 0 0 .786-.892l.2-2.366a1 1 0 0 0-1.168-1.077c-5.606.986-13.35 5.455-14.481 12.587-1.219 7.689 2.438 16.6 9.19 16.6s10.785-4.88 9.848-10.132Z"></path>
</svg>
